<svg width="17" height="16" viewBox="0 0 17 16" fill="none" xmlns="http://www.w3.org/2000/svg">
<g clip-path="url(#clip0_721_568)">
<path d="M14.1448 5.79607L14.3088 5.41874C14.5972 4.75122 15.1252 4.21602 15.7888 3.91874L16.2948 3.69274C16.3562 3.6645 16.4082 3.61925 16.4447 3.56236C16.4811 3.50546 16.5005 3.43931 16.5005 3.37174C16.5005 3.30417 16.4811 3.23801 16.4447 3.18112C16.4082 3.12422 16.3562 3.07897 16.2948 3.05074L15.8168 2.83807C15.1366 2.53232 14.5995 1.97732 14.3162 1.2874L14.1475 0.88007C14.1227 0.816972 14.0795 0.762802 14.0235 0.72462C13.9675 0.686438 13.9013 0.666016 13.8335 0.666016C13.7657 0.666016 13.6995 0.686438 13.6435 0.72462C13.5875 0.762802 13.5443 0.816972 13.5195 0.88007L13.3508 1.28674C13.0678 1.97679 12.531 2.53202 11.8508 2.83807L11.3722 3.0514C11.311 3.07972 11.2591 3.12496 11.2228 3.18179C11.1865 3.23861 11.1672 3.30463 11.1672 3.37207C11.1672 3.43951 11.1865 3.50553 11.2228 3.56235C11.2591 3.61917 11.311 3.66442 11.3722 3.69274L11.8788 3.91807C12.5423 4.21565 13.0701 4.75109 13.3582 5.41874L13.5222 5.79607C13.6422 6.07207 14.0242 6.07207 14.1448 5.79607ZM13.8335 7.3334C14.2802 7.3334 14.7088 7.26007 15.1102 7.1254C15.1479 7.41207 15.1668 7.70363 15.1668 8.00007C15.1668 11.6821 12.1822 14.6667 8.50016 14.6667C4.81816 14.6667 1.8335 11.6821 1.8335 8.00007C1.8335 4.31807 4.81816 1.3334 8.50016 1.3334C9.10416 1.3334 9.68883 1.4134 10.2448 1.56407C9.944 2.17401 9.80366 2.85057 9.83706 3.52984C9.87046 4.20911 10.0765 4.86864 10.4357 5.44613C10.7949 6.02361 11.2954 6.49997 11.89 6.8302C12.4845 7.16043 13.1534 7.33362 13.8335 7.3334ZM9.16683 7.3334V4.00007L5.8335 8.66674H7.8335V12.0001L11.1668 7.3334H9.16683Z" fill="#FDFDFD" fill-opacity="0.9"/>
</g>
<defs>
<clipPath id="clip0_721_568">
<rect width="16" height="16" fill="white" transform="translate(0.5)"/>
</clipPath>
</defs>
</svg>
