<svg width="16" height="16" viewBox="0 0 16 16" fill="none" xmlns="http://www.w3.org/2000/svg">
<path d="M7.99993 9.63424L2.28327 15.3509C2.06938 15.5648 1.79716 15.6717 1.4666 15.6717C1.13605 15.6717 0.863823 15.5648 0.649934 15.3509C0.436046 15.137 0.329102 14.8648 0.329102 14.5342C0.329102 14.2037 0.436046 13.9315 0.649934 13.7176L6.3666 8.00091L0.649934 2.28424C0.436046 2.07036 0.329102 1.79813 0.329102 1.46758C0.329102 1.13702 0.436046 0.8648 0.649934 0.650911C0.863823 0.437022 1.13605 0.330078 1.4666 0.330078C1.79716 0.330078 2.06938 0.437022 2.28327 0.650911L7.99993 6.36758L13.7166 0.650911C13.9305 0.437022 14.2027 0.330078 14.5333 0.330078C14.8638 0.330078 15.136 0.437022 15.3499 0.650911C15.5638 0.8648 15.6708 1.13702 15.6708 1.46758C15.6708 1.79813 15.5638 2.07036 15.3499 2.28424L9.63327 8.00091L15.3499 13.7176C15.5638 13.9315 15.6708 14.2037 15.6708 14.5342C15.6708 14.8648 15.5638 15.137 15.3499 15.3509C15.136 15.5648 14.8638 15.6717 14.5333 15.6717C14.2027 15.6717 13.9305 15.5648 13.7166 15.3509L7.99993 9.63424Z" fill="#97999D"/>
</svg>
