<svg width="24" height="24" viewBox="0 0 24 24" fill="none" xmlns="http://www.w3.org/2000/svg">
<path d="M21 7C21 9.21 16.97 11 12 11C7.03 11 3 9.21 3 7M21 7C21 4.79 16.97 3 12 3C7.03 3 3 4.79 3 7M21 7V12M3 7V12M21 12C21 14.21 16.97 16 12 16C7.03 16 3 14.21 3 12M21 12V17C21 19.21 16.97 21 12 21C7.03 21 3 19.21 3 17V12" stroke="url(#paint0_linear_721_273)" stroke-width="2" stroke-linecap="round" stroke-linejoin="round"/>
<defs>
<linearGradient id="paint0_linear_721_273" x1="21" y1="19.5978" x2="2.38785" y2="18.9679" gradientUnits="userSpaceOnUse">
<stop stop-color="#1AA788"/>
<stop offset="1" stop-color="#006F6F"/>
</linearGradient>
</defs>
</svg>
