<svg width="18" height="19" viewBox="0 0 18 19" fill="none" xmlns="http://www.w3.org/2000/svg">
<path d="M10.125 2.5127C8.064 2.5127 6.34106 3.77832 5.55469 5.55357C5.22731 5.41745 4.878 5.3252 4.5 5.3252C2.95312 5.3252 1.6875 6.59082 1.6875 8.1377C1.6875 8.21926 1.69875 8.28957 1.70494 8.36607C0.707625 9.08045 0 10.1964 0 11.5127C0 13.6811 1.76906 15.4502 3.9375 15.4502H14.0625C16.2309 15.4502 18 13.6811 18 11.5127C18 9.7397 16.7895 8.29126 15.1701 7.80357C15.1746 7.72707 15.1875 7.65451 15.1875 7.5752C15.1875 4.78688 12.9133 2.5127 10.125 2.5127ZM10.125 3.6377C12.3069 3.6377 14.0625 5.39326 14.0625 7.5752C14.0625 7.74676 14.0513 7.92001 14.0271 8.10282L13.9393 8.64732L14.5018 8.73507C15.1643 8.8375 15.7681 9.17411 16.2035 9.68377C16.639 10.1934 16.8772 10.8423 16.875 11.5127C16.875 13.0725 15.6223 14.3252 14.0625 14.3252H3.9375C2.37769 14.3252 1.125 13.0725 1.125 11.5127C1.12409 11.0112 1.25727 10.5186 1.51076 10.0859C1.76424 9.65323 2.12881 9.29618 2.56669 9.05176L2.91825 8.85826L2.84794 8.45382C2.8262 8.3498 2.81433 8.24395 2.8125 8.1377C2.8125 7.19945 3.56175 6.4502 4.5 6.4502C4.86675 6.4502 5.20312 6.56438 5.48438 6.76688L6.11719 7.24107L6.34556 6.46763C6.58418 5.65032 7.08166 4.93254 7.76322 4.42221C8.44477 3.91189 9.27356 3.63658 10.125 3.6377ZM11.25 7.5752V12.6377H12.375V7.5752H11.25ZM9 8.7002V12.6377H10.125V8.7002H9ZM6.75 9.2627V12.6377H7.875V9.2627H6.75ZM4.5 9.8252V12.6377H5.625V9.8252H4.5Z" fill="#FDFDFD"/>
</svg>
