<svg width="16" height="16" viewBox="0 0 16 16" fill="none" xmlns="http://www.w3.org/2000/svg">
<g clip-path="url(#clip0_721_3145)">
<path d="M5.57338 0.526248C3.97473 1.08083 2.59606 2.13346 1.63987 3.5295C0.683675 4.92554 0.200366 6.59143 0.26093 8.28245C0.321493 9.97348 0.922737 11.6005 1.97635 12.9246C3.02996 14.2486 4.4804 15.1999 6.11463 15.6387C7.43953 15.9806 8.82764 15.9956 10.1596 15.6825C11.3663 15.4115 12.4819 14.8317 13.3971 14C14.3497 13.1079 15.0412 11.9731 15.3971 10.7175C15.784 9.35208 15.8529 7.91616 15.5984 6.52H8.15838V9.60625H12.4671C12.381 10.0985 12.1965 10.5683 11.9246 10.9875C11.6527 11.4068 11.2989 11.7669 10.8846 12.0462C10.3585 12.3943 9.76537 12.6285 9.14338 12.7337C8.51956 12.8497 7.8797 12.8497 7.25588 12.7337C6.62361 12.603 6.0255 12.3421 5.49963 11.9675C4.65481 11.3695 4.02047 10.5199 3.68713 9.54C3.34815 8.54174 3.34815 7.45951 3.68713 6.46125C3.92441 5.76152 4.31667 5.12442 4.83463 4.5975C5.42737 3.98343 6.17779 3.54449 7.00357 3.32884C7.82935 3.11319 8.69858 3.12916 9.51588 3.375C10.1543 3.57099 10.7382 3.91342 11.2209 4.375C11.7067 3.89166 12.1917 3.40708 12.6759 2.92125C12.9259 2.66 13.1984 2.41125 13.4446 2.14375C12.7078 1.45809 11.843 0.924569 10.8996 0.573748C9.18176 -0.0500151 7.3021 -0.0667781 5.57338 0.526248Z" fill="white"/>
<path d="M5.57445 0.526245C7.30303 -0.067184 9.18269 -0.0508623 10.9007 0.572495C11.8442 0.925699 12.7087 1.46179 13.4445 2.14999C13.1945 2.41749 12.9307 2.66749 12.6757 2.92749C12.1907 3.41166 11.7061 3.89416 11.222 4.37499C10.7393 3.91342 10.1554 3.57098 9.51695 3.37499C8.69992 3.1283 7.83073 3.1114 7.00473 3.32617C6.17873 3.54094 5.42784 3.97907 4.83445 4.59249C4.31649 5.11941 3.92424 5.75652 3.68695 6.45624L1.0957 4.44999C2.02321 2.6107 3.62914 1.20377 5.57445 0.526245Z" fill="#E33629"/>
<path d="M0.40695 6.43745C0.546226 5.74719 0.777454 5.07873 1.09445 4.44995L3.6857 6.4612C3.34672 7.45946 3.34672 8.54169 3.6857 9.53995C2.82237 10.2066 1.95862 10.8766 1.09445 11.55C0.300888 9.97035 0.0588654 8.17058 0.40695 6.43745Z" fill="#F8BD00"/>
<path d="M8.15876 6.5188H15.5988C15.8533 7.91496 15.7844 9.35088 15.3975 10.7163C15.0416 11.9719 14.3501 13.1067 13.3975 13.9988C12.5613 13.3463 11.7213 12.6988 10.885 12.0463C11.2996 11.7666 11.6535 11.4062 11.9254 10.9865C12.1973 10.5668 12.3817 10.0965 12.4675 9.6038H8.15876C8.15751 8.5763 8.15876 7.54755 8.15876 6.5188Z" fill="#587DBD"/>
<path d="M1.09375 11.55C1.95792 10.8834 2.82167 10.2134 3.685 9.54004C4.01901 10.5203 4.65426 11.3699 5.5 11.9675C6.02751 12.3404 6.62691 12.5992 7.26 12.7275C7.88382 12.8435 8.52368 12.8435 9.1475 12.7275C9.76949 12.6223 10.3626 12.3881 10.8888 12.04C11.725 12.6925 12.565 13.34 13.4012 13.9925C12.4861 14.8247 11.3705 15.4049 10.1637 15.6763C8.83176 15.9894 7.44365 15.9744 6.11875 15.6325C5.07088 15.3528 4.09209 14.8595 3.24375 14.1838C2.34583 13.4709 1.61244 12.5725 1.09375 11.55Z" fill="#319F43"/>
</g>
<defs>
<clipPath id="clip0_721_3145">
<rect width="16" height="16" fill="white"/>
</clipPath>
</defs>
</svg>
