<svg width="16" height="16" viewBox="0 0 16 16" fill="none" xmlns="http://www.w3.org/2000/svg">
<path d="M8.00016 7.66732C7.55814 7.66732 7.13421 7.49172 6.82165 7.17916C6.50909 6.8666 6.3335 6.44268 6.3335 6.00065C6.3335 5.55862 6.50909 5.1347 6.82165 4.82214C7.13421 4.50958 7.55814 4.33398 8.00016 4.33398C8.44219 4.33398 8.86611 4.50958 9.17867 4.82214C9.49123 5.1347 9.66683 5.55862 9.66683 6.00065C9.66683 6.21952 9.62372 6.43625 9.53996 6.63846C9.4562 6.84067 9.33344 7.0244 9.17867 7.17916C9.02391 7.33393 8.84018 7.45669 8.63797 7.54045C8.43576 7.62421 8.21903 7.66732 8.00016 7.66732ZM8.00016 1.33398C6.76249 1.33398 5.5755 1.82565 4.70033 2.70082C3.82516 3.57599 3.3335 4.76297 3.3335 6.00065C3.3335 9.50065 8.00016 14.6673 8.00016 14.6673C8.00016 14.6673 12.6668 9.50065 12.6668 6.00065C12.6668 4.76297 12.1752 3.57599 11.3 2.70082C10.4248 1.82565 9.23784 1.33398 8.00016 1.33398Z" fill="#97999D"/>
</svg>
