<svg width="12" height="15" viewBox="0 0 12 15" fill="none" xmlns="http://www.w3.org/2000/svg">
<path d="M1.99935 14.666C1.63268 14.666 1.3189 14.5356 1.05802 14.2747C0.797127 14.0138 0.66646 13.6998 0.666016 13.3327V6.66602C0.666016 6.29935 0.796682 5.98557 1.05802 5.72468C1.31935 5.46379 1.63313 5.33313 1.99935 5.33268H2.66602V3.99935C2.66602 3.07713 2.99113 2.29113 3.64135 1.64135C4.29157 0.991572 5.07757 0.666461 5.99935 0.666016C6.92113 0.665572 7.70735 0.990683 8.35802 1.64135C9.00868 2.29202 9.33357 3.07802 9.33268 3.99935V5.33268H9.99935C10.366 5.33268 10.68 5.46335 10.9413 5.72468C11.2027 5.98602 11.3331 6.29979 11.3327 6.66602V13.3327C11.3327 13.6993 11.2022 14.0133 10.9413 14.2747C10.6805 14.536 10.3665 14.6665 9.99935 14.666H1.99935ZM5.99935 11.3327C6.36602 11.3327 6.68002 11.2022 6.94135 10.9413C7.20268 10.6805 7.33313 10.3665 7.33268 9.99935C7.33224 9.63224 7.20179 9.31846 6.94135 9.05802C6.6809 8.79757 6.3669 8.6669 5.99935 8.66602C5.63179 8.66513 5.31802 8.79579 5.05802 9.05802C4.79802 9.32024 4.66735 9.63402 4.66602 9.99935C4.66468 10.3647 4.79535 10.6787 5.05802 10.9413C5.32068 11.204 5.63446 11.3345 5.99935 11.3327ZM3.99935 5.33268H7.99935V3.99935C7.99935 3.44379 7.8049 2.97157 7.41602 2.58268C7.02713 2.19379 6.5549 1.99935 5.99935 1.99935C5.44379 1.99935 4.97157 2.19379 4.58268 2.58268C4.19379 2.97157 3.99935 3.44379 3.99935 3.99935V5.33268Z" fill="#97999D"/>
</svg>
