<svg width="14" height="12" viewBox="0 0 14 12" fill="none" xmlns="http://www.w3.org/2000/svg">
<path d="M12.332 0.667969H1.66536C0.932031 0.667969 0.338698 1.26797 0.338698 2.0013L0.332031 10.0013C0.332031 10.7346 0.932031 11.3346 1.66536 11.3346H12.332C13.0654 11.3346 13.6654 10.7346 13.6654 10.0013V2.0013C13.6654 1.26797 13.0654 0.667969 12.332 0.667969ZM12.0654 3.5013L7.35203 6.44797C7.1387 6.5813 6.8587 6.5813 6.64536 6.44797L1.93203 3.5013C1.86518 3.46378 1.80664 3.41308 1.75996 3.35227C1.71327 3.29147 1.67941 3.22182 1.66041 3.14755C1.64142 3.07328 1.6377 2.99593 1.64947 2.92017C1.66124 2.84442 1.68826 2.77184 1.72889 2.70684C1.76952 2.64183 1.82291 2.58574 1.88585 2.54197C1.94878 2.49819 2.01995 2.46764 2.09503 2.45217C2.17011 2.43669 2.24755 2.43661 2.32267 2.45193C2.39778 2.46725 2.46901 2.49766 2.53203 2.5413L6.9987 5.33464L11.4654 2.5413C11.5284 2.49766 11.5996 2.46725 11.6747 2.45193C11.7498 2.43661 11.8273 2.43669 11.9024 2.45217C11.9775 2.46764 12.0486 2.49819 12.1115 2.54197C12.1745 2.58574 12.2279 2.64183 12.2685 2.70684C12.3091 2.77184 12.3362 2.84442 12.3479 2.92017C12.3597 2.99593 12.356 3.07328 12.337 3.14755C12.318 3.22182 12.2841 3.29147 12.2374 3.35227C12.1908 3.41308 12.1322 3.46378 12.0654 3.5013Z" fill="#97999D"/>
</svg>
