<svg width="22" height="17" viewBox="0 0 22 17" fill="none" xmlns="http://www.w3.org/2000/svg">
<path d="M1.66667 16.0849C1.33611 16.0849 1.05903 15.9631 0.835417 15.7195C0.611806 15.4759 0.5 15.1741 0.5 14.814C0.5 14.4539 0.611806 14.152 0.835417 13.9084C1.05903 13.6648 1.33611 13.543 1.66667 13.543H20.3333C20.6639 13.543 20.941 13.6648 21.1646 13.9084C21.3882 14.152 21.5 14.4539 21.5 14.814C21.5 15.1741 21.3882 15.4759 21.1646 15.7195C20.941 15.9631 20.6639 16.0849 20.3333 16.0849H1.66667ZM1.66667 9.73012C1.33611 9.73012 1.05903 9.60832 0.835417 9.36472C0.611806 9.12112 0.5 8.81926 0.5 8.45916C0.5 8.09905 0.611806 7.7972 0.835417 7.5536C1.05903 7.30999 1.33611 7.18819 1.66667 7.18819H20.3333C20.6639 7.18819 20.941 7.30999 21.1646 7.5536C21.3882 7.7972 21.5 8.09905 21.5 8.45916C21.5 8.81926 21.3882 9.12112 21.1646 9.36472C20.941 9.60832 20.6639 9.73012 20.3333 9.73012H1.66667ZM1.66667 3.3753C1.33611 3.3753 1.05903 3.2535 0.835417 3.0099C0.611806 2.7663 0.5 2.46444 0.5 2.10434C0.5 1.74423 0.611806 1.44238 0.835417 1.19878C1.05903 0.955175 1.33611 0.833374 1.66667 0.833374H20.3333C20.6639 0.833374 20.941 0.955175 21.1646 1.19878C21.3882 1.44238 21.5 1.74423 21.5 2.10434C21.5 2.46444 21.3882 2.7663 21.1646 3.0099C20.941 3.2535 20.6639 3.3753 20.3333 3.3753H1.66667Z" fill="#1F1F29"/>
</svg>
