<svg width="17" height="16" viewBox="0 0 17 16" fill="none" xmlns="http://www.w3.org/2000/svg">
<path d="M6.91123 3.25481L6.90243 3.25561C5.57036 3.4477 4.35203 4.1131 3.47043 5.13001C2.96758 5.70718 2.58895 6.38172 2.35814 7.11159C2.12733 7.84147 2.04927 8.61105 2.12883 9.37241C2.26707 10.7331 2.8985 11.9962 3.90399 12.9233C4.90947 13.8505 6.2195 14.3776 7.58692 14.4052C8.95434 14.4329 10.2846 13.9592 11.3268 13.0734C12.3689 12.1877 13.0509 10.9512 13.244 9.59721V9.58921C13.2612 9.46967 13.2746 9.34961 13.284 9.22921C13.2881 9.17431 13.2808 9.11917 13.2626 9.06722C13.2444 9.01528 13.2156 8.96765 13.1781 8.92732C13.1407 8.887 13.0953 8.85484 13.0448 8.83287C12.9943 8.81089 12.9399 8.79957 12.8848 8.79961H8.90003C8.74245 8.79961 8.5864 8.76857 8.44081 8.70826C8.29522 8.64796 8.16294 8.55957 8.05151 8.44814C7.94007 8.33671 7.85168 8.20442 7.79138 8.05883C7.73107 7.91324 7.70003 7.7572 7.70003 7.59961V3.61481C7.70008 3.55969 7.68874 3.50515 7.66671 3.45462C7.64469 3.4041 7.61246 3.35866 7.57205 3.32118C7.53163 3.2837 7.48391 3.25497 7.43187 3.2368C7.37983 3.21864 7.32459 3.21142 7.26963 3.21561C7.1491 3.22521 7.02963 3.23828 6.91123 3.25481ZM14.8992 7.30841C14.8912 7.70681 14.5472 7.99961 14.1496 7.99961H9.30003C9.08786 7.99961 8.88438 7.91532 8.73435 7.76529C8.58432 7.61527 8.50003 7.41178 8.50003 7.19961V2.35001C8.50003 1.95161 8.79283 1.60841 9.19123 1.60041L9.30003 1.59961C10.0446 1.59958 10.7817 1.74803 11.4682 2.03628C12.1548 2.32453 12.7769 2.7468 13.2983 3.27837C13.8196 3.80995 14.2298 4.44016 14.5047 5.13214C14.7796 5.82412 14.9137 6.56397 14.8992 7.30841Z" fill="#FDFDFD" fill-opacity="0.9"/>
</svg>
