<svg width="14" height="14" viewBox="0 0 14 14" fill="none" xmlns="http://www.w3.org/2000/svg">
<path d="M11.874 10.6C12.1673 10.14 12.334 9.58667 12.334 9C12.334 7.33333 11.0007 6 9.33398 6C7.66732 6 6.33398 7.33333 6.33398 9C6.33398 10.6667 7.66732 12 9.33398 12C9.91398 12 10.4607 11.8333 10.9207 11.5467L13.0007 13.5933L13.9273 12.6667L11.874 10.6ZM9.33398 10.6667C8.89196 10.6667 8.46803 10.4911 8.15547 10.1785C7.84291 9.86595 7.66732 9.44203 7.66732 9C7.66732 8.55797 7.84291 8.13405 8.15547 7.82149C8.46803 7.50893 8.89196 7.33333 9.33398 7.33333C9.77601 7.33333 10.1999 7.50893 10.5125 7.82149C10.8251 8.13405 11.0007 8.55797 11.0007 9C11.0007 9.44203 10.8251 9.86595 10.5125 10.1785C10.1999 10.4911 9.77601 10.6667 9.33398 10.6667ZM2.33398 11.3333V6H0.333984L7.00065 0L13.6673 6H12.454C11.6673 5.18 10.5607 4.66667 9.33398 4.66667C6.94732 4.66667 5.00065 6.61333 5.00065 9C5.00065 9.86 5.25398 10.6667 5.68732 11.3333H2.33398Z" fill="#97999D"/>
</svg>
