<svg width="24" height="24" viewBox="0 0 24 24" fill="none" xmlns="http://www.w3.org/2000/svg">
<g opacity="0.8">
<path d="M3 4.628L12.0045 2L21 4.628V10.017C21 15.681 17.375 20.2095 12.0015 22C6.6265 20.21 3 15.68 3 10.0145V4.628Z" stroke="url(#paint0_linear_721_302)" stroke-width="1.5" stroke-linejoin="round"/>
<path d="M12 11.5C13.3807 11.5 14.5 10.3807 14.5 9C14.5 7.61929 13.3807 6.5 12 6.5C10.6193 6.5 9.5 7.61929 9.5 9C9.5 10.3807 10.6193 11.5 12 11.5Z" stroke="url(#paint1_linear_721_302)" stroke-width="1.5" stroke-linecap="round" stroke-linejoin="round"/>
<path d="M16 15.5C16 14.4391 15.5786 13.4217 14.8284 12.6716C14.0783 11.9214 13.0609 11.5 12 11.5C10.9391 11.5 9.92172 11.9214 9.17157 12.6716C8.42143 13.4217 8 14.4391 8 15.5" stroke="url(#paint2_linear_721_302)" stroke-width="1.5" stroke-linecap="round" stroke-linejoin="round"/>
</g>
<defs>
<linearGradient id="paint0_linear_721_302" x1="21" y1="20.442" x2="2.3838" y2="19.875" gradientUnits="userSpaceOnUse">
<stop stop-color="#1AA788"/>
<stop offset="1" stop-color="#006F6F"/>
</linearGradient>
<linearGradient id="paint1_linear_721_302" x1="14.5" y1="11.1105" x2="9.32996" y2="10.9355" gradientUnits="userSpaceOnUse">
<stop stop-color="#1AA788"/>
<stop offset="1" stop-color="#006F6F"/>
</linearGradient>
<linearGradient id="paint2_linear_721_302" x1="16" y1="15.1884" x2="7.75623" y2="14.6304" gradientUnits="userSpaceOnUse">
<stop stop-color="#1AA788"/>
<stop offset="1" stop-color="#006F6F"/>
</linearGradient>
</defs>
</svg>
